<svg xmlns="http://www.w3.org/2000/svg" xmlns:xlink="http://www.w3.org/1999/xlink" viewBox="0 0 890.97 306.9"><defs><style>.cls-1{fill:#fff;}.cls-2{fill:url(#Unnamed_Pattern_2);}.cls-12,.cls-13,.cls-3,.cls-8{fill:none;}.cls-4{fill:url(#Degradado_sin_nombre_2);}.cls-5{fill:url(#Unnamed_Pattern_2-3);}.cls-6{clip-path:url(#clip-path);}.cls-7{fill:#231f20;}.cls-8{stroke:#fff;}.cls-12,.cls-13,.cls-8{stroke-miterlimit:22.93;}.cls-12,.cls-8{stroke-width:0.22px;}.cls-9{mask:url(#mask);}.cls-10{clip-path:url(#clip-path-3);}.cls-11{fill:#ed1c24;}.cls-12,.cls-13{stroke:#000;}.cls-13{stroke-width:0.57px;}.cls-14{mask:url(#mask-2);}.cls-15{clip-path:url(#clip-path-4);}</style><pattern id="Unnamed_Pattern_2" data-name="Unnamed Pattern 2" width="704.88" height="39.93" patternTransform="matrix(1, 0, 0, -1.01, -126.15, 15635.8)" patternUnits="userSpaceOnUse" viewBox="0 0 704.88 39.93"><rect class="cls-3" width="704.88" height="39.93"/><rect class="cls-4" width="704.88" height="39.93"/></pattern><pattern id="Unnamed_Pattern_2-3" data-name="Unnamed Pattern 2" width="704.88" height="39.93" patternTransform="matrix(1, 0, 0, -1.01, -185.91, 15677.8)" patternUnits="userSpaceOnUse" viewBox="0 0 704.88 39.93"><rect class="cls-3" width="704.88" height="39.93"/><rect class="cls-4" width="704.88" height="39.93"/></pattern><linearGradient id="Degradado_sin_nombre_2" x1="578" y1="19.97" x2="126.88" y2="19.97" gradientUnits="userSpaceOnUse"><stop offset="0" stop-color="#fff"/><stop offset="0.03" stop-color="#f5f5f5"/><stop offset="0.24" stop-color="#acacac"/><stop offset="0.44" stop-color="#6f6f6f"/><stop offset="0.62" stop-color="#3f3f3f"/><stop offset="0.78" stop-color="#1d1d1d"/><stop offset="0.91" stop-color="#080808"/><stop offset="1"/></linearGradient><clipPath id="clip-path" transform="translate(-1 -1)"><rect class="cls-3" width="892.97" height="308.9"/></clipPath><mask id="mask" x="-1" y="38.93" width="858.68" height="155.17" maskUnits="userSpaceOnUse"><g transform="translate(-1 -1)"><rect class="cls-1" x="153.8" y="155.17" width="704.88" height="39.93"/><rect class="cls-2" x="153.8" y="155.17" width="704.88" height="39.93"/></g></mask><clipPath id="clip-path-3" transform="translate(-1 -1)"><rect class="cls-3" x="153.8" y="155.17" width="704.88" height="39.93"/></clipPath><mask id="mask-2" x="93.05" y="196.17" width="704.88" height="39.93" maskUnits="userSpaceOnUse"><g transform="translate(-1 -1)"><rect class="cls-1" x="94.05" y="197.17" width="704.88" height="39.93"/><rect class="cls-5" x="94.05" y="197.17" width="704.88" height="39.93"/></g></mask><clipPath id="clip-path-4" transform="translate(-1 -1)"><rect class="cls-3" x="94.05" y="197.17" width="704.88" height="39.93"/></clipPath></defs><g id="Capa_2" data-name="Capa 2"><g id="Capa_1-2" data-name="Capa 1"><g class="cls-6"><g class="cls-6"><path class="cls-7" d="M756.29,101.19l-32.57,44.67H695.6l41.49-58.63L695.6,29.79h28.12l32.57,44.67v26.73Zm40.46,0H769V74.46h27.77l32.58-44.67h28.12L816,87.23l41.49,58.63H829.33ZM515.41,60.5V58.71q0-12,9.44-20.44t23-8.48l97,.2,32.4-.2V60.5H515.41Zm139.22,53.85h22.63v31.51H547.82q-13.55,0-23-8.48t-9.44-20.44V73.67H677.26v27.52H541.13v13.16h113.5ZM335.23,60.5V29.79h32.4l97,.2q13.89-.19,23.14,7.48t9.26,23V73.67q0,15.15-8.14,21.33t-24.43,6.19H360.94v44.67H335.23V73.67h135.1V60.5ZM244.88,74.86,235.79,60.5H204.42l18.51-30.71H249l67.89,116.07H291.17L262,101.19H210.59l-29.83,44.67H155l41.83-71h48Z" transform="translate(-1 -1)"/><path class="cls-8" d="M756.29,101.19l-32.57,44.67H695.6l41.49-58.63L695.6,29.79h28.12l32.57,44.67v26.73Zm40.46,0H769V74.46h27.77l32.58-44.67h28.12L816,87.23l41.49,58.63H829.33ZM515.41,60.5V58.71q0-12,9.44-20.44t23-8.48l97,.2,32.4-.2V60.5H515.41Zm139.22,53.85h22.63v31.51H547.82q-13.55,0-23-8.48t-9.44-20.44V73.67H677.26v27.52H541.13v13.16h113.5ZM335.23,60.5V29.79h32.4l97,.2q13.89-.19,23.14,7.48t9.26,23V73.67q0,15.15-8.14,21.33t-24.43,6.19H360.94v44.67H335.23V73.67h135.1V60.5ZM244.88,74.86,235.79,60.5H204.42l18.51-30.71H249l67.89,116.07H291.17L262,101.19H210.59l-29.83,44.67H155l41.83-71h48Z" transform="translate(-1 -1)"/><g class="cls-9"><g class="cls-10"><path class="cls-11" d="M165.28,155.17H847.21c6.31,0,11.47,4.34,11.47,9.64v20.65c0,5.31-5.16,9.64-11.47,9.64H165.28c-6.31,0-11.48-4.33-11.48-9.64V164.81c0-5.3,5.17-9.64,11.48-9.64" transform="translate(-1 -1)"/></g></g><path d="M823.29,167.57l-5.58,10.35h11.18Zm-16.76,21,14.62-25.92h4.3l14.62,25.92h-5.16l-4.52-7.79H816.2l-4.51,7.79Zm-34.18-12.74a11.91,11.91,0,0,1,5.38-10.33q4.08-2.85,10.54-2.85t10.09,2.55a8.7,8.7,0,0,1,4.09,6.89h-5.16a6.59,6.59,0,0,0-2.8-4.79,10.57,10.57,0,0,0-6.22-1.8,11.76,11.76,0,0,0-6.88,2.09q-3.89,2.72-3.88,8.24t3.88,8.25a11.7,11.7,0,0,0,6.88,1.94,11.49,11.49,0,0,0,6.65-1.65,6.84,6.84,0,0,0,3-6h5.17a9.7,9.7,0,0,1-4.3,7.94q-3.66,2.55-10.53,2.55-6.46,0-10.54-2.85A11.76,11.76,0,0,1,772.35,175.81Zm-14.62-12.88h9.68v3.3H765v19h2.37v3.3h-9.68v-3.3h2.37v-19h-2.37Zm-28,0H754.5v2.85H734.72v8.39H750.2V177H734.72v11.53h-4.94Zm-21.72,4.64-5.59,10.35h11.19Zm-16.77,21,14.62-25.92h4.31l14.62,25.92h-5.17l-4.51-7.79H701l-4.51,7.79Zm-25.58-22.92v8.84H678.4a6.27,6.27,0,0,0,3.66-1.05,3.74,3.74,0,0,0,1.5-3.29,3.82,3.82,0,0,0-1.72-3.3,7,7,0,0,0-4.09-1.2Zm-4.94-2.85h18.06a12.11,12.11,0,0,1,7.09,1.95,6.6,6.6,0,0,1,0,10.79,9.31,9.31,0,0,1-4.29,1.35L690,188.4h-5.38l-7.74-11.08H665.71V188.4h-4.94Zm-38.48,13q0-6.59,4.94-10a18.69,18.69,0,0,1,11-3.15q6.46,0,10.54,2.85a7.56,7.56,0,0,1,3.65,5.84h-5.15a5.59,5.59,0,0,0-2.58-4.19,11.13,11.13,0,0,0-6.46-1.65,11.77,11.77,0,0,0-6.88,2q-3.85,2.69-3.86,8.38a9.44,9.44,0,0,0,4.08,8.25c1.87,1.3,4.44,1.94,7.75,1.94a10.25,10.25,0,0,0,6-1.65,6.24,6.24,0,0,0,2.8-3.44v-2.4h-6.24v-2.84H653v13.18h-3.66l-1.28-2.55a15.8,15.8,0,0,1-9.25,2.55q-6.87,0-11.18-3A11.64,11.64,0,0,1,622.29,175.81Z" transform="translate(-1 -1)"/><path class="cls-12" d="M823.29,167.57l-5.58,10.35h11.18Zm-16.76,21,14.62-25.92h4.3l14.62,25.92h-5.16l-4.52-7.79H816.2l-4.51,7.79Zm-34.18-12.74a11.91,11.91,0,0,1,5.38-10.33q4.08-2.85,10.54-2.85t10.09,2.55a8.7,8.7,0,0,1,4.09,6.89h-5.16a6.59,6.59,0,0,0-2.8-4.79,10.57,10.57,0,0,0-6.22-1.8,11.76,11.76,0,0,0-6.88,2.09q-3.89,2.72-3.88,8.24t3.88,8.25a11.7,11.7,0,0,0,6.88,1.94,11.49,11.49,0,0,0,6.65-1.65,6.84,6.84,0,0,0,3-6h5.17a9.7,9.7,0,0,1-4.3,7.94q-3.66,2.55-10.53,2.55-6.46,0-10.54-2.85A11.76,11.76,0,0,1,772.35,175.81Zm-14.62-12.88h9.68v3.3H765v19h2.37v3.3h-9.68v-3.3h2.37v-19h-2.37Zm-28,0H754.5v2.85H734.72v8.39H750.2V177H734.72v11.53h-4.94Zm-21.72,4.64-5.59,10.35h11.19Zm-16.77,21,14.62-25.92h4.31l14.62,25.92h-5.17l-4.51-7.79H701l-4.51,7.79Zm-25.58-22.92v8.84H678.4a6.27,6.27,0,0,0,3.66-1.05,3.74,3.74,0,0,0,1.5-3.29,3.82,3.82,0,0,0-1.72-3.3,7,7,0,0,0-4.09-1.2Zm-4.94-2.85h18.06a12.11,12.11,0,0,1,7.09,1.95,6.6,6.6,0,0,1,0,10.79,9.31,9.31,0,0,1-4.29,1.35L690,188.4h-5.38l-7.74-11.08H665.71V188.4h-4.94Zm-38.48,13q0-6.59,4.94-10a18.69,18.69,0,0,1,11-3.15q6.46,0,10.54,2.85a7.56,7.56,0,0,1,3.65,5.84h-5.15a5.59,5.59,0,0,0-2.58-4.19,11.13,11.13,0,0,0-6.46-1.65,11.77,11.77,0,0,0-6.88,2q-3.85,2.69-3.86,8.38a9.44,9.44,0,0,0,4.08,8.25c1.87,1.3,4.44,1.94,7.75,1.94a10.25,10.25,0,0,0,6-1.65,6.24,6.24,0,0,0,2.8-3.44v-2.4h-6.24v-2.84H653v13.18h-3.66l-1.28-2.55a15.8,15.8,0,0,1-9.25,2.55q-6.87,0-11.18-3A11.64,11.64,0,0,1,622.29,175.81Z" transform="translate(-1 -1)"/><path class="cls-1" d="M822,167l-5.58,10.34h11.18Zm-16.76,21L819.88,162h4.3L838.8,188h-5.17l-4.51-7.79H814.93L810.42,188Zm-34.18-12.74a11.91,11.91,0,0,1,5.37-10.33A18,18,0,0,1,787,162q6.45,0,10.1,2.55a8.65,8.65,0,0,1,4.08,6.89H796a6.62,6.62,0,0,0-2.8-4.79,10.6,10.6,0,0,0-6.23-1.8,11.78,11.78,0,0,0-6.88,2.09q-3.87,2.7-3.87,8.24c0,3.7,1.29,6.44,3.87,8.25a11.82,11.82,0,0,0,6.88,1.94,11.54,11.54,0,0,0,6.66-1.65,6.84,6.84,0,0,0,3-6h5.16a9.66,9.66,0,0,1-4.3,7.94c-2.44,1.7-5.94,2.55-10.53,2.55a18,18,0,0,1-10.54-2.85A11.78,11.78,0,0,1,771.08,175.22Zm-14.62-12.88h9.67v3.29h-2.36v19h2.36V188h-9.67v-3.3h2.36v-19h-2.36Zm-28,0h24.72v2.85H733.45v8.39h15.48v2.84H733.45V188h-4.94ZM706.79,167l-5.59,10.34h11.18ZM690,188,704.64,162h4.3L723.56,188H718.4l-4.51-7.79H699.7L695.18,188ZM664.44,165v8.84h12.68a6.2,6.2,0,0,0,3.66-1.06,3.72,3.72,0,0,0,1.51-3.29,3.81,3.81,0,0,0-1.73-3.3,7,7,0,0,0-4.08-1.19Zm-5-2.85h18.06a12.14,12.14,0,0,1,7.1,1.95,6.61,6.61,0,0,1,0,10.79,9.48,9.48,0,0,1-4.3,1.35l8.39,11.53h-5.38l-7.74-11.09H664.44v11.09h-5Zm-38.47,13q0-6.58,4.94-10a18.69,18.69,0,0,1,11-3.15q6.45,0,10.54,2.85a7.58,7.58,0,0,1,3.65,5.84H646a5.59,5.59,0,0,0-2.58-4.2,11.23,11.23,0,0,0-6.46-1.64,11.77,11.77,0,0,0-6.88,2q-3.87,2.68-3.86,8.38a9.44,9.44,0,0,0,4.08,8.25q2.79,1.93,7.74,1.94a10.3,10.3,0,0,0,6-1.65,6.29,6.29,0,0,0,2.8-3.44v-2.4h-6.24v-2.85h11.18v13.19H648.1l-1.28-2.55a15.8,15.8,0,0,1-9.25,2.55c-4.58,0-8.32-1-11.18-3A11.63,11.63,0,0,1,621,175.22Z" transform="translate(-1 -1)"/><path class="cls-8" d="M822,167l-5.58,10.34h11.18Zm-16.76,21L819.88,162h4.3L838.8,188h-5.17l-4.51-7.79H814.93L810.42,188Zm-34.18-12.74a11.91,11.91,0,0,1,5.37-10.33A18,18,0,0,1,787,162q6.45,0,10.1,2.55a8.65,8.65,0,0,1,4.08,6.89H796a6.62,6.62,0,0,0-2.8-4.79,10.6,10.6,0,0,0-6.23-1.8,11.78,11.78,0,0,0-6.88,2.09q-3.87,2.7-3.87,8.24c0,3.7,1.29,6.44,3.87,8.25a11.82,11.82,0,0,0,6.88,1.94,11.54,11.54,0,0,0,6.66-1.65,6.84,6.84,0,0,0,3-6h5.16a9.66,9.66,0,0,1-4.3,7.94c-2.44,1.7-5.94,2.55-10.53,2.55a18,18,0,0,1-10.54-2.85A11.78,11.78,0,0,1,771.08,175.22Zm-14.62-12.88h9.67v3.29h-2.36v19h2.36V188h-9.67v-3.3h2.36v-19h-2.36Zm-28,0h24.72v2.85H733.45v8.39h15.48v2.84H733.45V188h-4.94ZM706.79,167l-5.59,10.34h11.18ZM690,188,704.64,162h4.3L723.56,188H718.4l-4.51-7.79H699.7L695.18,188ZM664.44,165v8.84h12.68a6.2,6.2,0,0,0,3.66-1.06,3.72,3.72,0,0,0,1.51-3.29,3.81,3.81,0,0,0-1.73-3.3,7,7,0,0,0-4.08-1.19Zm-5-2.85h18.06a12.14,12.14,0,0,1,7.1,1.95,6.61,6.61,0,0,1,0,10.79,9.48,9.48,0,0,1-4.3,1.35l8.39,11.53h-5.38l-7.74-11.09H664.44v11.09h-5Zm-38.47,13q0-6.58,4.94-10a18.69,18.69,0,0,1,11-3.15q6.45,0,10.54,2.85a7.58,7.58,0,0,1,3.65,5.84H646a5.59,5.59,0,0,0-2.58-4.2,11.23,11.23,0,0,0-6.46-1.64,11.77,11.77,0,0,0-6.88,2q-3.87,2.68-3.86,8.38a9.44,9.44,0,0,0,4.08,8.25q2.79,1.93,7.74,1.94a10.3,10.3,0,0,0,6-1.65,6.29,6.29,0,0,0,2.8-3.44v-2.4h-6.24v-2.85h11.18v13.19H648.1l-1.28-2.55a15.8,15.8,0,0,1-9.25,2.55c-4.58,0-8.32-1-11.18-3A11.63,11.63,0,0,1,621,175.22Z" transform="translate(-1 -1)"/><rect x="0.28" y="0.28" width="890.4" height="306.33"/><rect class="cls-13" x="0.28" y="0.28" width="890.4" height="306.33"/><path class="cls-1" d="M696.53,143.19,664,187.86H635.84l41.49-58.63L635.84,71.79H664l32.57,44.67v26.73Zm40.47,0H709.22V116.46H737l32.57-44.67h28.12L756.2,129.23l41.49,58.63H769.57ZM455.66,102.5v-1.79q0-12,9.43-20.44t23-8.48l97,.2,32.4-.2V102.5H455.66Zm139.21,53.85H617.5v31.51H488.06q-13.55,0-23-8.48t-9.43-20.44V115.67H617.5v27.52H481.37v13.16h113.5ZM275.47,102.5V71.79h32.4l97,.2q13.89-.19,23.14,7.48t9.26,23v13.17q0,15.15-8.14,21.33t-24.43,6.19H301.18v44.67H275.47V115.67h135.1V102.5Zm-90.35,14.36L176,102.5H144.66l18.51-30.71h26.06l67.89,116.07H231.41l-29.15-44.67H150.83L121,187.86H95.28l41.83-71h48Z" transform="translate(-1 -1)"/><path class="cls-8" d="M696.53,143.19,664,187.86H635.84l41.49-58.63L635.84,71.79H664l32.57,44.67v26.73Zm40.47,0H709.22V116.46H737l32.57-44.67h28.12L756.2,129.23l41.49,58.63H769.57ZM455.66,102.5v-1.79q0-12,9.43-20.44t23-8.48l97,.2,32.4-.2V102.5H455.66Zm139.21,53.85H617.5v31.51H488.06q-13.55,0-23-8.48t-9.43-20.44V115.67H617.5v27.52H481.37v13.16h113.5ZM275.47,102.5V71.79h32.4l97,.2q13.89-.19,23.14,7.48t9.26,23v13.17q0,15.15-8.14,21.33t-24.43,6.19H301.18v44.67H275.47V115.67h135.1V102.5Zm-90.35,14.36L176,102.5H144.66l18.51-30.71h26.06l67.89,116.07H231.41l-29.15-44.67H150.83L121,187.86H95.28l41.83-71h48Z" transform="translate(-1 -1)"/><g class="cls-14"><g class="cls-15"><path class="cls-11" d="M105.52,197.17H787.45c6.31,0,11.47,4.34,11.47,9.64v20.66c0,5.3-5.16,9.63-11.47,9.63H105.52c-6.31,0-11.47-4.33-11.47-9.63V206.81c0-5.3,5.16-9.64,11.47-9.64" transform="translate(-1 -1)"/></g></g><path d="M763.54,209.57,758,219.92h11.18Zm-16.77,21,14.62-25.92h4.3l14.62,25.92h-5.16l-4.52-7.79H756.45l-4.52,7.79Zm-34.18-12.74A11.91,11.91,0,0,1,718,207.48q4.08-2.85,10.54-2.85t10.09,2.55a8.7,8.7,0,0,1,4.09,6.89h-5.16a6.59,6.59,0,0,0-2.8-4.79,10.57,10.57,0,0,0-6.22-1.8,11.76,11.76,0,0,0-6.88,2.09c-2.59,1.81-3.87,4.55-3.87,8.24s1.28,6.45,3.87,8.25a11.7,11.7,0,0,0,6.88,1.94,11.54,11.54,0,0,0,6.66-1.65,6.85,6.85,0,0,0,3-6h5.17a9.7,9.7,0,0,1-4.3,7.94q-3.66,2.55-10.53,2.55Q722,230.85,718,228A11.76,11.76,0,0,1,712.59,217.81ZM698,204.93h9.68v3.3h-2.37v19h2.37v3.3H698v-3.3h2.37v-19H698Zm-28,0h24.72v2.85H675v8.39h15.47V219H675v11.53h-5Zm-21.72,4.64-5.59,10.35H653.9Zm-16.77,21,14.62-25.92h4.31l14.62,25.92h-5.17l-4.51-7.79H641.21l-4.51,7.79ZM606,207.63v8.84h12.69a6.27,6.27,0,0,0,3.66-1.05,3.74,3.74,0,0,0,1.5-3.29,3.82,3.82,0,0,0-1.72-3.3,7,7,0,0,0-4.09-1.2ZM601,204.78h18.06a12.11,12.11,0,0,1,7.09,1.95,6.6,6.6,0,0,1,0,10.79,9.31,9.31,0,0,1-4.29,1.35l8.38,11.53h-5.38l-7.74-11.08H606V230.4H601Zm-38.48,13q0-6.59,4.94-10a18.69,18.69,0,0,1,11-3.15q6.47,0,10.54,2.85a7.56,7.56,0,0,1,3.65,5.84h-5.15a5.59,5.59,0,0,0-2.58-4.19,11.13,11.13,0,0,0-6.46-1.65,11.79,11.79,0,0,0-6.88,2q-3.85,2.69-3.86,8.38a9.44,9.44,0,0,0,4.08,8.25c1.87,1.3,4.44,1.94,7.75,1.94a10.25,10.25,0,0,0,6-1.65,6.24,6.24,0,0,0,2.8-3.44v-2.4h-6.24v-2.84h11.18v13.18h-3.66l-1.28-2.55a15.79,15.79,0,0,1-9.24,2.55q-6.89,0-11.19-3A11.64,11.64,0,0,1,562.53,217.81Z" transform="translate(-1 -1)"/><path class="cls-12" d="M763.54,209.57,758,219.92h11.18Zm-16.77,21,14.62-25.92h4.3l14.62,25.92h-5.16l-4.52-7.79H756.45l-4.52,7.79Zm-34.18-12.74A11.91,11.91,0,0,1,718,207.48q4.08-2.85,10.54-2.85t10.09,2.55a8.7,8.7,0,0,1,4.09,6.89h-5.16a6.59,6.59,0,0,0-2.8-4.79,10.57,10.57,0,0,0-6.22-1.8,11.76,11.76,0,0,0-6.88,2.09c-2.59,1.81-3.87,4.55-3.87,8.24s1.28,6.45,3.87,8.25a11.7,11.7,0,0,0,6.88,1.94,11.54,11.54,0,0,0,6.66-1.65,6.85,6.85,0,0,0,3-6h5.17a9.7,9.7,0,0,1-4.3,7.94q-3.66,2.55-10.53,2.55Q722,230.85,718,228A11.76,11.76,0,0,1,712.59,217.81ZM698,204.93h9.68v3.3h-2.37v19h2.37v3.3H698v-3.3h2.37v-19H698Zm-28,0h24.72v2.85H675v8.39h15.47V219H675v11.53h-5Zm-21.72,4.64-5.59,10.35H653.9Zm-16.77,21,14.62-25.92h4.31l14.62,25.92h-5.17l-4.51-7.79H641.21l-4.51,7.79ZM606,207.63v8.84h12.69a6.27,6.27,0,0,0,3.66-1.05,3.74,3.74,0,0,0,1.5-3.29,3.82,3.82,0,0,0-1.72-3.3,7,7,0,0,0-4.09-1.2ZM601,204.78h18.06a12.11,12.11,0,0,1,7.09,1.95,6.6,6.6,0,0,1,0,10.79,9.31,9.31,0,0,1-4.29,1.35l8.38,11.53h-5.38l-7.74-11.08H606V230.4H601Zm-38.48,13q0-6.59,4.94-10a18.69,18.69,0,0,1,11-3.15q6.47,0,10.54,2.85a7.56,7.56,0,0,1,3.65,5.84h-5.15a5.59,5.59,0,0,0-2.58-4.19,11.13,11.13,0,0,0-6.46-1.65,11.79,11.79,0,0,0-6.88,2q-3.85,2.69-3.86,8.38a9.44,9.44,0,0,0,4.08,8.25c1.87,1.3,4.44,1.94,7.75,1.94a10.25,10.25,0,0,0,6-1.65,6.24,6.24,0,0,0,2.8-3.44v-2.4h-6.24v-2.84h11.18v13.18h-3.66l-1.28-2.55a15.79,15.79,0,0,1-9.24,2.55q-6.89,0-11.19-3A11.64,11.64,0,0,1,562.53,217.81Z" transform="translate(-1 -1)"/><path class="cls-1" d="M762.26,209l-5.58,10.34h11.18ZM745.5,230,760.12,204h4.3L779,230h-5.17l-4.51-7.79H755.17L750.66,230Zm-34.18-12.74a11.91,11.91,0,0,1,5.37-10.33A18,18,0,0,1,727.23,204q6.45,0,10.1,2.55a8.65,8.65,0,0,1,4.08,6.89h-5.15a6.62,6.62,0,0,0-2.8-4.79,10.6,10.6,0,0,0-6.23-1.8,11.78,11.78,0,0,0-6.88,2.09q-3.87,2.7-3.87,8.24c0,3.7,1.29,6.44,3.87,8.25a11.82,11.82,0,0,0,6.88,1.94,11.54,11.54,0,0,0,6.66-1.65,6.84,6.84,0,0,0,3-6h5.17a9.68,9.68,0,0,1-4.31,7.94c-2.44,1.7-5.94,2.55-10.53,2.55a18,18,0,0,1-10.54-2.85A11.78,11.78,0,0,1,711.32,217.22ZM696.7,204.34h9.67v3.29H704v19h2.36V230H696.7v-3.3h2.36v-19H696.7Zm-28,0h24.72v2.85H673.69v8.39h15.48v2.84H673.69V230h-4.94ZM647,209l-5.59,10.34h11.18Zm-16.77,21L644.88,204h4.3L663.8,230h-5.16l-4.51-7.79H639.94L635.43,230ZM604.68,207v8.84h12.68a6.16,6.16,0,0,0,3.66-1.06,3.72,3.72,0,0,0,1.51-3.29,3.81,3.81,0,0,0-1.73-3.3,7,7,0,0,0-4.08-1.19Zm-4.95-2.85H617.8a12.13,12.13,0,0,1,7.09,1.95,6.61,6.61,0,0,1,0,10.79,9.44,9.44,0,0,1-4.3,1.35L629,229.81H623.6l-7.74-11.09H604.68v11.09h-4.95Zm-38.47,13q0-6.58,4.94-10a18.69,18.69,0,0,1,11-3.15q6.45,0,10.54,2.85a7.58,7.58,0,0,1,3.65,5.84H586.2a5.59,5.59,0,0,0-2.58-4.2,11.21,11.21,0,0,0-6.46-1.64,11.77,11.77,0,0,0-6.88,2q-3.87,2.68-3.86,8.38a9.44,9.44,0,0,0,4.08,8.25q2.79,1.93,7.74,1.94a10.3,10.3,0,0,0,6-1.65,6.24,6.24,0,0,0,2.8-3.44v-2.4h-6.24v-2.85H592v13.19h-3.66l-1.28-2.55a15.8,15.8,0,0,1-9.25,2.55c-4.58,0-8.32-1-11.18-3A11.63,11.63,0,0,1,561.26,217.22Z" transform="translate(-1 -1)"/><path class="cls-8" d="M762.26,209l-5.58,10.34h11.18ZM745.5,230,760.12,204h4.3L779,230h-5.17l-4.51-7.79H755.17L750.66,230Zm-34.18-12.74a11.91,11.91,0,0,1,5.37-10.33A18,18,0,0,1,727.23,204q6.45,0,10.1,2.55a8.65,8.65,0,0,1,4.08,6.89h-5.15a6.62,6.62,0,0,0-2.8-4.79,10.6,10.6,0,0,0-6.23-1.8,11.78,11.78,0,0,0-6.88,2.09q-3.87,2.7-3.87,8.24c0,3.7,1.29,6.44,3.87,8.25a11.82,11.82,0,0,0,6.88,1.94,11.54,11.54,0,0,0,6.66-1.65,6.84,6.84,0,0,0,3-6h5.17a9.68,9.68,0,0,1-4.31,7.94c-2.44,1.7-5.94,2.55-10.53,2.55a18,18,0,0,1-10.54-2.85A11.78,11.78,0,0,1,711.32,217.22ZM696.7,204.34h9.67v3.29H704v19h2.36V230H696.7v-3.3h2.36v-19H696.7Zm-28,0h24.72v2.85H673.69v8.39h15.48v2.84H673.69V230h-4.94ZM647,209l-5.59,10.34h11.18Zm-16.77,21L644.88,204h4.3L663.8,230h-5.16l-4.51-7.79H639.94L635.43,230ZM604.68,207v8.84h12.68a6.16,6.16,0,0,0,3.66-1.06,3.72,3.72,0,0,0,1.51-3.29,3.81,3.81,0,0,0-1.73-3.3,7,7,0,0,0-4.08-1.19Zm-4.95-2.85H617.8a12.13,12.13,0,0,1,7.09,1.95,6.61,6.61,0,0,1,0,10.79,9.44,9.44,0,0,1-4.3,1.35L629,229.81H623.6l-7.74-11.09H604.68v11.09h-4.95Zm-38.47,13q0-6.58,4.94-10a18.69,18.69,0,0,1,11-3.15q6.45,0,10.54,2.85a7.58,7.58,0,0,1,3.65,5.84H586.2a5.59,5.59,0,0,0-2.58-4.2,11.21,11.21,0,0,0-6.46-1.64,11.77,11.77,0,0,0-6.88,2q-3.87,2.68-3.86,8.38a9.44,9.44,0,0,0,4.08,8.25q2.79,1.93,7.74,1.94a10.3,10.3,0,0,0,6-1.65,6.24,6.24,0,0,0,2.8-3.44v-2.4h-6.24v-2.85H592v13.19h-3.66l-1.28-2.55a15.8,15.8,0,0,1-9.25,2.55c-4.58,0-8.32-1-11.18-3A11.63,11.63,0,0,1,561.26,217.22Z" transform="translate(-1 -1)"/><polygon class="cls-1" points="644.91 198.85 644.41 201.97 647.54 201.97 649.6 198.85 644.91 198.85"/></g></g></g></g></svg>