<svg xmlns="http://www.w3.org/2000/svg" viewBox="0 0 820 312"><defs><style>.cls-1{fill:#202020;}.cls-2{fill:#b90b14;}.cls-3{fill:#9e0e0e;}.cls-4{fill:#f8fffb;}.cls-5{fill:#d8d8d8;}.cls-6{font-size:12.68px;fill:#dbdada;font-family:Elephant-Regular, Elephant;}</style></defs><g id="Capa_2" data-name="Capa 2"><g id="Capa_1-2" data-name="Capa 1"><rect class="cls-1" width="820" height="312"/><circle class="cls-2" cx="404.39" cy="158.55" r="86.64"/><path class="cls-3" d="M487.87,181.77l-69.48-69.48-57.24,92.53,40.32,40.32c1,0,1.94.05,2.92.05A86.66,86.66,0,0,0,487.87,181.77Z"/><path class="cls-4" d="M447.92,205l-29.49-92.8-28.34-.13-11.75,38h20.51l5.31-16.81,9.52,29.92H374.26L360.85,205h20.94l6.81-22h31.49l6.55,21.53Z"/><path class="cls-5" d="M418.39,112.29h-14v20.83l9.51,30.1h-9.51v19.63H420.1l6.94,22h20.58Z"/><text class="cls-6" transform="matrix(-0.18, -0.99, 0.98, -0.18, 315.07, 179.93)">S</text><text class="cls-6" transform="matrix(-0.07, -1, 1, -0.07, 313.4, 171.25)">O</text><text class="cls-6" transform="matrix(0.05, -1, 1, 0.04, 312.61, 159.99)">L</text><text class="cls-6" transform="matrix(0.16, -0.99, 0.99, 0.16, 313.04, 149.8)">U</text><text class="cls-6" transform="matrix(0.27, -0.97, 0.96, 0.27, 314.74, 139.27)">C</text><text class="cls-6" transform="matrix(0.35, -0.94, 0.94, 0.35, 317.44, 129.74)">I</text><text class="cls-6" transform="matrix(0.44, -0.9, 0.9, 0.44, 319.66, 123.47)">O</text><text class="cls-6" transform="matrix(0.55, -0.84, 0.84, 0.54, 324.61, 113.31)">N</text><text class="cls-6" transform="matrix(0.64, -0.77, 0.77, 0.64, 330.7, 103.91)">E</text><text class="cls-6" transform="matrix(0.72, -0.7, 0.7, 0.72, 337.68, 95.61)">S</text><text class="cls-6" transform="matrix(0.77, -0.65, 0.65, 0.76, 344.15, 89.48)"> </text><text class="cls-6" transform="matrix(0.82, -0.59, 0.59, 0.81, 346.35, 87.39)">G</text><text class="cls-6" transform="matrix(0.88, -0.48, 0.48, 0.88, 355.53, 80.74)">R</text><text class="cls-6" transform="matrix(0.93, -0.38, 0.38, 0.92, 365.54, 75.3)">Á</text><text class="cls-6" transform="matrix(0.96, -0.28, 0.28, 0.96, 374.16, 71.73)">F</text><text class="cls-6" transform="matrix(0.99, -0.2, 0.2, 0.98, 383.55, 69.02)">I</text><text class="cls-6" transform="matrix(1, -0.11, 0.11, 0.99, 390.06, 67.63)">C</text><text class="cls-6" transform="matrix(1.01, 0, 0, 1, 399.91, 66.57)">A</text><text class="cls-6" transform="matrix(1, 0.1, -0.1, 1, 409.21, 66.56)">S</text><text class="cls-6" transform="matrix(0.99, 0.16, -0.16, 0.99, 418.08, 67.52)"> </text><text class="cls-6" transform="matrix(0.98, 0.24, -0.24, 0.97, 421.09, 67.88)">P</text><text class="cls-6" transform="matrix(0.95, 0.34, -0.34, 0.94, 430.93, 70.27)">A</text><text class="cls-6" transform="matrix(0.9, 0.44, -0.44, 0.9, 439.74, 73.36)">R</text><text class="cls-6" transform="matrix(0.85, 0.54, -0.54, 0.84, 449.93, 78.41)">A</text><text class="cls-6" transform="matrix(0.81, 0.6, -0.6, 0.8, 457.79, 83.56)"> </text><text class="cls-6" transform="matrix(0.76, 0.66, -0.65, 0.76, 460.31, 85.26)">T</text><text class="cls-6" transform="matrix(0.68, 0.74, -0.73, 0.68, 467.91, 91.75)">U</text><text class="cls-6" transform="matrix(0.63, 0.79, -0.78, 0.62, 475.07, 99.69)"> </text><text class="cls-6" transform="matrix(0.56, 0.83, -0.83, 0.56, 477.08, 101.96)">E</text><text class="cls-6" transform="matrix(0.45, 0.9, -0.89, 0.45, 483.22, 110.84)">M</text><text class="cls-6" transform="matrix(0.33, 0.95, -0.94, 0.33, 489.18, 122.98)">P</text><text class="cls-6" transform="matrix(0.22, 0.98, -0.98, 0.22, 492.55, 132.52)">R</text><text class="cls-6" transform="matrix(0.1, 1, -1, 0.1, 495.03, 143.62)">E</text><text class="cls-6" transform="matrix(-0.01, 1.01, -1, -0.01, 496.05, 154.41)">S</text><text class="cls-6" transform="matrix(-0.11, 1, -0.99, -0.11, 496.01, 163.27)">A</text><polygon class="cls-2" points="377.95 150.13 398.77 150.13 395.3 163.24 373.15 163.24 377.95 150.13"/><polyline class="cls-2" points="398.77 150.13 404.23 133.3 413.62 163.04 395.3 163.24 398.43 150.13"/></g></g></svg>