<svg xmlns="http://www.w3.org/2000/svg" xmlns:xlink="http://www.w3.org/1999/xlink" viewBox="0 0 820.65 312"><defs><style>.cls-1{fill:#202020;}.cls-2{fill:url(#Degradado_sin_nombre_4);}.cls-3{fill:url(#Degradado_sin_nombre_4-2);}.cls-4{fill:url(#Degradado_sin_nombre_4-3);}.cls-5{fill:#636978;}.cls-6{fill:#414952;}.cls-7{fill:#23272b;}.cls-8{fill:#555a66;}.cls-9{fill:#333940;}.cls-10{fill:#64e1dc;}.cls-11{fill:#fff;}.cls-12{fill:#e9edf5;}</style><linearGradient id="Degradado_sin_nombre_4" y1="156" x2="820.65" y2="156" gradientUnits="userSpaceOnUse"><stop offset="0" stop-color="#90000f"/><stop offset="1"/></linearGradient><linearGradient id="Degradado_sin_nombre_4-2" x1="354.42" x2="487.47" xlink:href="#Degradado_sin_nombre_4"/><linearGradient id="Degradado_sin_nombre_4-3" x1="374.43" y1="164.16" x2="487.47" y2="164.16" xlink:href="#Degradado_sin_nombre_4"/></defs><g id="Capa_2" data-name="Capa 2"><g id="Capa_1-2" data-name="Capa 1"><rect class="cls-1" x="0.65" width="820" height="312"/><path class="cls-2" d="M820.65,0c-43.39,48.32-89.79,96.54-146.8,111.6-24.38,6.45-49.55,6-74.47,5.63l-90.12-1.52c-32.63-.55-67-.58-95.44,19.26-14.18,9.89-26,24.16-38.66,36.79-35.78,35.6-79.68,58.51-125.21,65.33-44.54,6.67-89.73-1.74-134.46,2.46S23.08,264.33.23,312L0,0Z"/><ellipse class="cls-3" cx="420.95" cy="156" rx="66.53" ry="57.73"/><path class="cls-4" d="M487.47,156A50.7,50.7,0,0,0,486,144l-33.83-29.36-77.76,61.85,22.71,19.71-1.86,1.31,18.35,15.92q3.6.35,7.32.35c36.74,0,66.52-25.85,66.52-57.73Z"/><path class="cls-5" d="M461.11,179.35H381.38c-4.94,0-8.94-3.48-8.94-7.77V143.13c0-4.29,4-7.76,8.94-7.76h79.73c4.94,0,8.94,3.47,8.94,7.76v28.45C470.05,175.87,466.05,179.35,461.11,179.35Z"/><path class="cls-6" d="M461.09,135.37H421.24v44h39.87c4.94,0,8.94-3.48,8.94-7.77V143.19c0-4.32-4-7.82-9-7.82Z"/><path class="cls-6" d="M389.33,168.76h62.89v10.59H389.33Z"/><path class="cls-7" d="M421.24,168.76h31v10.59h-31Z"/><path class="cls-6" d="M389.33,114.19h62.89v30.95H389.33Z"/><path class="cls-7" d="M421.24,114.19h31v30.95h-31Z"/><path class="cls-8" d="M437.3,128.85H404.25c-3.06,0-5.53-2.15-5.53-4.79v-9.87h44.11v9.87C442.83,126.7,440.36,128.85,437.3,128.85Z"/><path class="cls-9" d="M421.24,114.19v14.66h17c3.06,0,5.53-2.15,5.53-4.79v-9.87Z"/><path class="cls-8" d="M380.89,160.61H461.6v5.71H380.89Z"/><path class="cls-9" d="M421.24,160.61H461.6v5.71H421.24Z"/><ellipse class="cls-10" cx="384.61" cy="153.52" rx="3.89" ry="3.37"/><ellipse class="cls-10" cx="394.89" cy="153.52" rx="3.89" ry="3.37"/><path class="cls-11" d="M395,168.76h51.62v28.5H395Z"/><path class="cls-12" d="M421.24,168.76h25.35v28.5H421.24Z"/><image width="940" height="221" transform="translate(396.84 180.16) scale(0.05 0.04)" xlink:href="../../g41.png"/></g></g></svg>